# xmcd
#
# Track frame offsets: 
#        150
#        21853
#        52152
#        94879
#        118937
#        132239
#        152849
#        177610
#        212827
#        228400
#        244036
#
# Disc length: 3593 seconds
#
# Revision: 0
# Processed by: cddbd v1.5.2PL0 Copyright (c) Steve Scherf et al.
# Submitted via: ExactAudioCopy v1.3
#
DISCID=a00e070b
DTITLE=Carlos Johnson - In And Out
DYEAR=2004
DGENRE=Chicago Blues
TTITLE0=Blues Man
TTITLE1=Leaving On The Next Train
TTITLE2=Don't Ever Leave Me
TTITLE3=It Ain't No Fun To Me
TTITLE4=In and Out
TTITLE5=Spirit
TTITLE6=You Need A Man
TTITLE7=Key To The Highway
TTITLE8=Lisa
TTITLE9=Do Do Do
TTITLE10=Delta Blues
EXTD=
EXTT0=
EXTT1=
EXTT2=
EXTT3=
EXTT4=
EXTT5=
EXTT6=
EXTT7=
EXTT8=
EXTT9=
EXTT10=
PLAYORDER=
